<svg width="34" height="34" viewBox="0 0 34 34" fill="none" xmlns="http://www.w3.org/2000/svg">
<path d="M17.8991 23.3415C17.9078 24.1113 17.08 24.6018 16.409 24.2245L5.84104 18.2816C5.17006 17.9043 5.15916 16.9421 5.82142 16.5497L16.2521 10.369C16.9144 9.97656 17.7531 10.4482 17.7618 11.218L17.8991 23.3415Z" fill="black"/>
<path d="M24.8991 23.3415C24.9078 24.1113 24.08 24.6018 23.409 24.2245L12.841 18.2816C12.1701 17.9043 12.1592 16.9421 12.8214 16.5497L23.2521 10.369C23.9144 9.97656 24.7531 10.4482 24.7618 11.218L24.8991 23.3415Z" fill="black"/>
<path fill-rule="evenodd" clip-rule="evenodd" d="M17 34C26.3888 34 34 26.3888 34 17C34 7.61116 26.3888 0 17 0C7.61116 0 0 7.61116 0 17C0 26.3888 7.61116 34 17 34ZM17 32C25.2843 32 32 25.2843 32 17C32 8.71573 25.2843 2 17 2C8.71573 2 2 8.71573 2 17C2 25.2843 8.71573 32 17 32Z" fill="#040404"/>
</svg>
