<svg width="35" height="35" viewBox="0 0 35 35" fill="none" xmlns="http://www.w3.org/2000/svg">
<path d="M15.8054 10.9099C15.8088 10.1401 16.6442 9.66258 17.3092 10.0504L27.7826 16.1584C28.4475 16.5462 28.4433 17.5085 27.775 17.8904L17.2486 23.9067C16.5803 24.2887 15.749 23.8039 15.7524 23.0341L15.8054 10.9099Z" fill="black"/>
<path d="M7.80625 10.8C7.80962 10.0302 8.64505 9.55272 9.31002 9.94053L19.7834 16.0486C20.4484 16.4364 20.4442 17.3986 19.7759 17.7806L9.24945 23.7968C8.58111 24.1788 7.74989 23.694 7.75325 22.9242L7.80625 10.8Z" fill="black"/>
<path fill-rule="evenodd" clip-rule="evenodd" d="M17.8717 0.266834C8.48402 0.119465 0.75433 7.61022 0.606961 16.9979C0.459592 26.3856 7.95035 34.1153 17.338 34.2626C26.7257 34.41 34.4554 26.9193 34.6028 17.5316C34.7501 8.14389 27.2594 0.414203 17.8717 0.266834ZM17.8403 2.26659C9.55706 2.13656 2.73675 8.74605 2.60671 17.0293C2.47668 25.3125 9.08617 32.1329 17.3694 32.2629C25.6527 32.3929 32.473 25.7834 32.603 17.5002C32.7331 9.21693 26.1236 2.39662 17.8403 2.26659Z" fill="#040404"/>
</svg>
