<svg width="35" height="35" viewBox="0 0 35 35" fill="none" xmlns="http://www.w3.org/2000/svg">
<path fill-rule="evenodd" clip-rule="evenodd" d="M17.5316 0.266834C8.14393 0.119465 0.414242 7.61022 0.266873 16.9979C0.119505 26.3856 7.61026 34.1153 16.9979 34.2626C26.3856 34.41 34.1153 26.9193 34.2627 17.5316C34.4101 8.14389 26.9193 0.414203 17.5316 0.266834ZM17.5002 2.26659C9.21697 2.13656 2.39666 8.74605 2.26663 17.0293C2.1366 25.3125 8.74609 32.1329 17.0293 32.2629C25.3126 32.3929 32.1329 25.7834 32.2629 17.5002C32.393 9.21693 25.7835 2.39662 17.5002 2.26659Z" fill="#040404"/>
<path d="M13.6599 10L13.6599 24" stroke="black" stroke-width="3" stroke-linecap="round"/>
<path d="M21.6599 10L21.6599 24" stroke="black" stroke-width="3" stroke-linecap="round"/>
</svg>
