<svg width="34" height="34" viewBox="0 0 34 34" fill="none" xmlns="http://www.w3.org/2000/svg">
<path d="M12.8127 11.1795C12.8179 10.4097 13.6544 9.93416 14.3185 10.3235L24.7774 16.4562C25.4415 16.8456 25.435 17.8078 24.7658 18.1882L14.2252 24.1796C13.556 24.56 12.7259 24.0733 12.7311 23.3035L12.8127 11.1795Z" fill="black"/>
<path fill-rule="evenodd" clip-rule="evenodd" d="M17 34C26.3888 34 34 26.3888 34 17C34 7.61116 26.3888 0 17 0C7.61116 0 0 7.61116 0 17C0 26.3888 7.61116 34 17 34ZM17 32C25.2843 32 32 25.2843 32 17C32 8.71573 25.2843 2 17 2C8.71573 2 2 8.71573 2 17C2 25.2843 8.71573 32 17 32Z" fill="#040404"/>
</svg>
